<svg width="1445" height="1355" viewBox="0 0 1445 1355" fill="none" xmlns="http://www.w3.org/2000/svg">
  <g filter="url(#filter0_d_341_1967)">
    <rect x="201" y="205.533" width="1063" height="999" rx="12" fill="#7749F8"/>
  </g>
  <path
    d="M1336.61 1148.11V1120.45C1336.61 1073 1298.14 1034.54 1250.69 1034.54C1190.95 1034.54 1150.17 1094.83 1153.63 1154.47C1155.73 1190.65 1150.4 1225.53 1127.61 1243.54C1092.52 1271.25 1171.51 1266.28 1242.23 1257.53C1296.98 1250.76 1336.61 1203.28 1336.61 1148.11Z"
    fill="#F8F9FA" fill-opacity="0.36"/>
  <path
    d="M1329.03 357.205L1321.97 281.661C1311.39 168.51 1193.27 98.8006 1089.1 144.232C953.567 203.345 955.504 398.694 1087.68 464.985C1179.76 511.171 1255.69 556.057 1265.15 582.365C1285.76 639.672 1316.1 477.084 1327.24 410.863C1330.23 393.108 1330.71 375.131 1329.03 357.205Z"
    fill="#F8F9FA" fill-opacity="0.36"/>
  <path
    d="M291.278 719.769L290.494 692.12C289.15 644.688 249.61 607.327 202.178 608.672C142.462 610.364 103.411 671.792 108.557 731.31C111.678 767.418 107.337 802.433 85.0649 821.075C50.7731 849.777 129.596 842.564 200.038 831.816C254.579 823.495 292.841 774.919 291.278 719.769Z"
    fill="#F8F9FA" fill-opacity="0.36"/>
  <path
    d="M404.857 193.356L389.491 175.347C368.01 150.172 336.284 136.079 303.204 137.016C227.196 139.17 182.372 218.362 176.398 294.166C174.576 317.29 167.728 337.645 152.524 350.37C136.782 363.547 175.78 390.565 241.031 422.964C385.915 494.903 509.853 316.41 404.857 193.356Z"
    fill="#F8F9FA" fill-opacity="0.36"/>
  <path
    d="M779.096 1265.58L796.921 1244.43C827.499 1208.15 822.872 1153.95 786.588 1123.37C740.906 1084.87 670.869 1104.7 635.081 1152.54C613.368 1181.56 586.817 1204.79 557.787 1203.87C513.091 1202.45 576.704 1249.55 636.418 1288.44C682.653 1318.54 743.543 1307.77 779.096 1265.58Z"
    fill="#F8F9FA" fill-opacity="0.36"/>
  <path
    d="M305.979 1088.89L240.918 1034.06C163.192 968.558 10.2981 1068.37 -85.4585 1034.27C-178.183 1001.26 44.801 1168.5 172.443 1261.55C218.518 1295.14 282.419 1286.92 319.161 1243.32C358.168 1197.04 352.266 1127.89 305.979 1088.89Z"
    fill="#F8F9FA" fill-opacity="0.36"/>
  <defs>
    <filter id="filter0_d_341_1967" x="197" y="202.533" width="1071" height="1007" filterUnits="userSpaceOnUse"
            color-interpolation-filters="sRGB">
      <feFlood flood-opacity="0" result="BackgroundImageFix"/>
      <feColorMatrix in="SourceAlpha" type="matrix" values="0 0 0 0 0 0 0 0 0 0 0 0 0 0 0 0 0 0 127 0"
                     result="hardAlpha"/>
      <feOffset dy="1"/>
      <feGaussianBlur stdDeviation="2"/>
      <feColorMatrix type="matrix" values="0 0 0 0 0 0 0 0 0 0 0 0 0 0 0 0 0 0 0.1 0"/>
      <feBlend mode="normal" in2="BackgroundImageFix" result="effect1_dropShadow_341_1967"/>
      <feBlend mode="normal" in="SourceGraphic" in2="effect1_dropShadow_341_1967" result="shape"/>
    </filter>
  </defs>
</svg>
