<svg width="228" height="51" viewBox="0 0 228 51" fill="none" xmlns="http://www.w3.org/2000/svg">
  <path fill-rule="evenodd" clip-rule="evenodd"
        d="M25.5 47.8125C31.4176 47.8125 37.0929 45.4617 41.2773 41.2773C45.4617 37.0929 47.8125 31.4176 47.8125 25.5C47.8125 19.5824 45.4617 13.9071 41.2773 9.72268C37.0929 5.53827 31.4176 3.1875 25.5 3.1875C19.5824 3.1875 13.9071 5.53827 9.72268 9.72268C5.53827 13.9071 3.1875 19.5824 3.1875 25.5C3.1875 31.4176 5.53827 37.0929 9.72268 41.2773C13.9071 45.4617 19.5824 47.8125 25.5 47.8125ZM25.5 51C32.263 51 38.749 48.3134 43.5312 43.5312C48.3134 38.749 51 32.263 51 25.5C51 18.737 48.3134 12.251 43.5312 7.46878C38.749 2.6866 32.263 0 25.5 0C18.737 0 12.251 2.6866 7.46878 7.46878C2.6866 12.251 0 18.737 0 25.5C0 32.263 2.6866 38.749 7.46878 43.5312C12.251 48.3134 18.737 51 25.5 51Z"
        fill="#5227CC"/>
  <path fill-rule="evenodd" clip-rule="evenodd"
        d="M13.6589 30.4946C14.0249 30.2833 14.4599 30.226 14.8682 30.3354C15.2765 30.4448 15.6246 30.7119 15.8359 31.0779C16.8149 32.7748 18.2235 34.1837 19.9202 35.163C21.6168 36.1423 23.5415 36.6572 25.5004 36.6561C27.4594 36.6572 29.3841 36.1423 31.0807 35.163C32.7773 34.1837 34.186 32.7748 35.1649 31.0779C35.2688 30.8952 35.4078 30.7349 35.5739 30.6061C35.74 30.4773 35.93 30.3827 36.1328 30.3276C36.3357 30.2725 36.5474 30.2581 36.7558 30.2852C36.9643 30.3123 37.1653 30.3804 37.3473 30.4855C37.5293 30.5905 37.6888 30.7306 37.8164 30.8976C37.9441 31.0645 38.0375 31.2551 38.0912 31.4583C38.1449 31.6615 38.1579 31.8733 38.1295 32.0816C38.101 32.2898 38.0316 32.4904 37.9253 32.6717C36.6666 34.8531 34.8556 36.6644 32.6744 37.9234C30.4932 39.1825 28.0189 39.8447 25.5004 39.8436C22.982 39.8447 20.5076 39.1825 18.3265 37.9234C16.1453 36.6644 14.3342 34.8531 13.0756 32.6717C12.8642 32.3056 12.807 31.8706 12.9163 31.4624C13.0257 31.0541 13.2928 30.706 13.6589 30.4946Z"
        fill="#5227CC"/>
  <path
    d="M22.3125 20.7188C22.3125 23.358 20.8845 25.5 19.125 25.5C17.3655 25.5 15.9375 23.358 15.9375 20.7188C15.9375 18.0795 17.3655 15.9375 19.125 15.9375C20.8845 15.9375 22.3125 18.0795 22.3125 20.7188ZM35.0625 20.7188C35.0625 23.358 33.6345 25.5 31.875 25.5C30.1155 25.5 28.6875 23.358 28.6875 20.7188C28.6875 18.0795 30.1155 15.9375 31.875 15.9375C33.6345 15.9375 35.0625 18.0795 35.0625 20.7188Z"
    fill="#5227CC"/>
  <path
    d="M70.582 22.08V10.88H77.638V12.544H72.31V20.416H77.638V22.08H70.582ZM71.366 17.168V15.504H76.758V17.168H71.366Z"
    fill="#7749F8"/>
  <path
    d="M83.484 22.24C82.7054 22.24 82.0067 22.048 81.388 21.664C80.78 21.28 80.2947 20.7573 79.932 20.096C79.58 19.4347 79.404 18.6933 79.404 17.872C79.404 17.0507 79.58 16.3093 79.932 15.648C80.2947 14.9867 80.78 14.464 81.388 14.08C82.0067 13.696 82.7054 13.504 83.484 13.504C84.2307 13.504 84.908 13.6587 85.516 13.968C86.1347 14.2667 86.604 14.6773 86.924 15.2L86.012 16.32C85.8414 16.0747 85.6227 15.8507 85.356 15.648C85.0894 15.4453 84.8067 15.2853 84.508 15.168C84.2094 15.0507 83.9214 14.992 83.644 14.992C83.132 14.992 82.6734 15.12 82.268 15.376C81.8734 15.6213 81.5587 15.9627 81.324 16.4C81.0894 16.8373 80.972 17.328 80.972 17.872C80.972 18.416 81.0947 18.9067 81.34 19.344C81.5854 19.7707 81.9107 20.112 82.316 20.368C82.7214 20.624 83.1694 20.752 83.66 20.752C83.948 20.752 84.2254 20.704 84.492 20.608C84.7694 20.512 85.036 20.368 85.292 20.176C85.548 19.984 85.788 19.7493 86.012 19.472L86.924 20.592C86.5827 21.072 86.092 21.4667 85.452 21.776C84.8227 22.0853 84.1667 22.24 83.484 22.24Z"
    fill="#7749F8"/>
  <path
    d="M92.3985 22.24C91.5345 22.24 90.7665 22.0587 90.0945 21.696C89.4332 21.3227 88.9105 20.816 88.5265 20.176C88.1532 19.536 87.9665 18.8 87.9665 17.968C87.9665 17.3067 88.0732 16.704 88.2865 16.16C88.4999 15.616 88.7932 15.1467 89.1665 14.752C89.5505 14.3467 90.0039 14.0373 90.5265 13.824C91.0599 13.6 91.6359 13.488 92.2545 13.488C92.7985 13.488 93.3052 13.5947 93.7745 13.808C94.2439 14.0107 94.6492 14.2933 94.9905 14.656C95.3425 15.0187 95.6092 15.4507 95.7905 15.952C95.9825 16.4427 96.0732 16.9813 96.0625 17.568L96.0465 18.272H89.1825L88.8145 16.96H94.6225L94.3825 17.232V16.848C94.3505 16.496 94.2332 16.1813 94.0305 15.904C93.8279 15.6267 93.5719 15.408 93.2625 15.248C92.9532 15.088 92.6172 15.008 92.2545 15.008C91.6785 15.008 91.1932 15.12 90.7985 15.344C90.4039 15.5573 90.1052 15.8773 89.9025 16.304C89.6999 16.72 89.5985 17.2373 89.5985 17.856C89.5985 18.4427 89.7212 18.9547 89.9665 19.392C90.2119 19.8187 90.5585 20.1493 91.0065 20.384C91.4545 20.6187 91.9719 20.736 92.5585 20.736C92.9745 20.736 93.3585 20.6667 93.7105 20.528C94.0732 20.3893 94.4625 20.1387 94.8785 19.776L95.7105 20.944C95.4545 21.2 95.1399 21.424 94.7665 21.616C94.4039 21.808 94.0145 21.9627 93.5985 22.08C93.1932 22.1867 92.7932 22.24 92.3985 22.24Z"
    fill="#7749F8"/>
  <path
    d="M97.8215 22.08V13.68H99.4855V15.472L99.1815 15.664C99.2669 15.3867 99.4002 15.12 99.5815 14.864C99.7735 14.608 100.003 14.384 100.27 14.192C100.547 13.9893 100.84 13.8293 101.15 13.712C101.47 13.5947 101.795 13.536 102.126 13.536C102.606 13.536 103.027 13.616 103.39 13.776C103.752 13.936 104.051 14.176 104.286 14.496C104.52 14.816 104.691 15.216 104.798 15.696L104.542 15.632L104.654 15.36C104.771 15.1147 104.931 14.8853 105.134 14.672C105.347 14.448 105.587 14.2507 105.854 14.08C106.12 13.9093 106.403 13.776 106.702 13.68C107 13.584 107.294 13.536 107.582 13.536C108.211 13.536 108.728 13.664 109.134 13.92C109.55 14.176 109.859 14.5653 110.062 15.088C110.275 15.6107 110.382 16.2613 110.382 17.04V22.08H108.718V17.136C108.718 16.656 108.654 16.2667 108.526 15.968C108.408 15.6587 108.227 15.4293 107.982 15.28C107.736 15.1307 107.422 15.056 107.038 15.056C106.739 15.056 106.456 15.1093 106.19 15.216C105.934 15.312 105.71 15.4507 105.518 15.632C105.326 15.8133 105.176 16.0267 105.07 16.272C104.963 16.5067 104.91 16.768 104.91 17.056V22.08H103.246V17.104C103.246 16.6667 103.182 16.2987 103.054 16C102.926 15.6907 102.739 15.456 102.494 15.296C102.248 15.136 101.95 15.056 101.598 15.056C101.299 15.056 101.022 15.1093 100.766 15.216C100.51 15.312 100.286 15.4507 100.094 15.632C99.9015 15.8027 99.7522 16.0107 99.6455 16.256C99.5389 16.4907 99.4855 16.7467 99.4855 17.024V22.08H97.8215Z"
    fill="#7749F8"/>
  <path
    d="M117.488 22.08V10.88H121.872C122.672 10.88 123.392 11.0133 124.032 11.28C124.683 11.5467 125.238 11.9307 125.696 12.432C126.155 12.9333 126.507 13.5253 126.752 14.208C126.998 14.8907 127.12 15.648 127.12 16.48C127.12 17.312 126.998 18.0747 126.752 18.768C126.507 19.4507 126.155 20.0427 125.696 20.544C125.248 21.0347 124.699 21.4133 124.048 21.68C123.398 21.9467 122.672 22.08 121.872 22.08H117.488ZM119.216 20.592L119.168 20.416H121.792C122.358 20.416 122.859 20.3253 123.296 20.144C123.744 19.9627 124.118 19.7067 124.416 19.376C124.726 19.0347 124.96 18.6187 125.12 18.128C125.28 17.6373 125.36 17.088 125.36 16.48C125.36 15.872 125.28 15.328 125.12 14.848C124.96 14.3573 124.726 13.9413 124.416 13.6C124.107 13.2587 123.734 12.9973 123.296 12.816C122.859 12.6347 122.358 12.544 121.792 12.544H119.12L119.216 12.4V20.592Z"
    fill="#7749F8"/>
  <path
    d="M132.817 22.24C131.996 22.24 131.26 22.0533 130.609 21.68C129.969 21.296 129.462 20.7787 129.089 20.128C128.716 19.4667 128.529 18.7147 128.529 17.872C128.529 17.0293 128.716 16.2827 129.089 15.632C129.462 14.9707 129.969 14.4533 130.609 14.08C131.26 13.696 131.996 13.504 132.817 13.504C133.628 13.504 134.353 13.696 134.993 14.08C135.644 14.4533 136.156 14.9707 136.529 15.632C136.902 16.2827 137.089 17.0293 137.089 17.872C137.089 18.7147 136.902 19.4667 136.529 20.128C136.156 20.7787 135.644 21.296 134.993 21.68C134.353 22.0533 133.628 22.24 132.817 22.24ZM132.817 20.736C133.318 20.736 133.766 20.6133 134.161 20.368C134.556 20.112 134.865 19.7707 135.089 19.344C135.313 18.9067 135.42 18.416 135.409 17.872C135.42 17.3173 135.313 16.8267 135.089 16.4C134.865 15.9627 134.556 15.6213 134.161 15.376C133.766 15.1307 133.318 15.008 132.817 15.008C132.316 15.008 131.862 15.136 131.457 15.392C131.062 15.6373 130.753 15.9787 130.529 16.416C130.305 16.8427 130.198 17.328 130.209 17.872C130.198 18.416 130.305 18.9067 130.529 19.344C130.753 19.7707 131.062 20.112 131.457 20.368C131.862 20.6133 132.316 20.736 132.817 20.736Z"
    fill="#7749F8"/>
  <path
    d="M142.645 25.76C142.047 25.76 141.45 25.664 140.853 25.472C140.266 25.2907 139.791 25.0507 139.429 24.752L140.037 23.472C140.25 23.632 140.501 23.7707 140.789 23.888C141.077 24.016 141.381 24.112 141.701 24.176C142.021 24.2507 142.335 24.288 142.645 24.288C143.231 24.288 143.722 24.192 144.117 24C144.511 23.808 144.81 23.5253 145.013 23.152C145.215 22.7787 145.317 22.3147 145.317 21.76V20.144L145.493 20.256C145.439 20.5867 145.263 20.9067 144.965 21.216C144.677 21.5147 144.314 21.76 143.877 21.952C143.439 22.144 142.991 22.24 142.533 22.24C141.733 22.24 141.018 22.0533 140.389 21.68C139.77 21.296 139.279 20.7787 138.917 20.128C138.554 19.4667 138.373 18.7147 138.373 17.872C138.373 17.0293 138.549 16.2827 138.901 15.632C139.263 14.9707 139.754 14.4533 140.373 14.08C141.002 13.696 141.706 13.504 142.485 13.504C142.805 13.504 143.114 13.5467 143.413 13.632C143.711 13.7067 143.989 13.8187 144.245 13.968C144.501 14.1067 144.73 14.2613 144.933 14.432C145.135 14.6027 145.301 14.784 145.429 14.976C145.557 15.168 145.637 15.3493 145.669 15.52L145.317 15.648V13.68H146.965V21.568C146.965 22.24 146.863 22.832 146.661 23.344C146.469 23.8667 146.186 24.304 145.813 24.656C145.439 25.0187 144.986 25.2907 144.453 25.472C143.919 25.664 143.317 25.76 142.645 25.76ZM142.709 20.72C143.231 20.72 143.695 20.5973 144.101 20.352C144.506 20.1067 144.821 19.7707 145.045 19.344C145.269 18.9173 145.381 18.4267 145.381 17.872C145.381 17.3173 145.263 16.8267 145.029 16.4C144.805 15.9627 144.49 15.6213 144.085 15.376C143.69 15.1307 143.231 15.008 142.709 15.008C142.197 15.008 141.738 15.136 141.333 15.392C140.938 15.6373 140.623 15.9787 140.389 16.416C140.165 16.8427 140.053 17.328 140.053 17.872C140.053 18.416 140.165 18.9067 140.389 19.344C140.623 19.7707 140.938 20.1067 141.333 20.352C141.738 20.5973 142.197 20.72 142.709 20.72ZM142.933 12.656C142.25 12.656 141.685 12.4373 141.237 12C140.789 11.552 140.49 10.9493 140.341 10.192L141.525 10C141.663 10.416 141.85 10.7467 142.085 10.992C142.33 11.2373 142.613 11.36 142.933 11.36C143.253 11.36 143.53 11.2373 143.765 10.992C144.01 10.7467 144.202 10.416 144.341 10L145.525 10.192C145.375 10.9493 145.077 11.552 144.629 12C144.181 12.4373 143.615 12.656 142.933 12.656Z"
    fill="#7749F8"/>
  <path
    d="M152.507 22.24C151.814 22.24 151.179 22.048 150.603 21.664C150.038 21.28 149.585 20.7573 149.243 20.096C148.902 19.4347 148.731 18.688 148.731 17.856C148.731 17.0133 148.902 16.2667 149.243 15.616C149.595 14.9547 150.065 14.4373 150.651 14.064C151.249 13.6907 151.915 13.504 152.651 13.504C153.089 13.504 153.489 13.568 153.851 13.696C154.214 13.824 154.529 14.0053 154.795 14.24C155.073 14.464 155.297 14.7253 155.467 15.024C155.649 15.3227 155.761 15.6427 155.803 15.984L155.435 15.856V13.68H157.099V22.08H155.435V20.08L155.819 19.968C155.755 20.256 155.622 20.5387 155.419 20.816C155.227 21.0827 154.977 21.3227 154.667 21.536C154.369 21.7493 154.033 21.92 153.659 22.048C153.297 22.176 152.913 22.24 152.507 22.24ZM152.939 20.72C153.441 20.72 153.883 20.5973 154.267 20.352C154.651 20.1067 154.95 19.7707 155.163 19.344C155.387 18.9067 155.499 18.4107 155.499 17.856C155.499 17.312 155.387 16.8267 155.163 16.4C154.95 15.9733 154.651 15.6373 154.267 15.392C153.883 15.1467 153.441 15.024 152.939 15.024C152.449 15.024 152.011 15.1467 151.627 15.392C151.254 15.6373 150.955 15.9733 150.731 16.4C150.518 16.8267 150.411 17.312 150.411 17.856C150.411 18.4107 150.518 18.9067 150.731 19.344C150.955 19.7707 151.254 20.1067 151.627 20.352C152.011 20.5973 152.449 20.72 152.939 20.72Z"
    fill="#7749F8"/>
  <path
    d="M159.4 22.08V13.68H161.048V15.408L160.76 15.6C160.867 15.2267 161.075 14.8853 161.384 14.576C161.694 14.256 162.062 14 162.488 13.808C162.915 13.6053 163.352 13.504 163.8 13.504C164.44 13.504 164.974 13.632 165.4 13.888C165.827 14.1333 166.147 14.512 166.36 15.024C166.574 15.536 166.68 16.1813 166.68 16.96V22.08H165.032V17.072C165.032 16.592 164.968 16.1973 164.84 15.888C164.712 15.568 164.515 15.3387 164.248 15.2C163.982 15.0507 163.651 14.9867 163.256 15.008C162.936 15.008 162.643 15.0613 162.376 15.168C162.11 15.264 161.875 15.4027 161.672 15.584C161.48 15.7653 161.326 15.9787 161.208 16.224C161.102 16.4587 161.048 16.7147 161.048 16.992V22.08H160.232C160.094 22.08 159.955 22.08 159.816 22.08C159.678 22.08 159.539 22.08 159.4 22.08Z"
    fill="#7749F8"/>
  <path
    d="M177.272 22.24C176.664 22.24 176.099 22.16 175.576 22C175.064 21.84 174.595 21.6 174.168 21.28C173.752 20.9493 173.379 20.544 173.048 20.064L174.232 18.704C174.755 19.4507 175.256 19.968 175.736 20.256C176.216 20.544 176.787 20.688 177.448 20.688C177.854 20.688 178.222 20.624 178.552 20.496C178.883 20.368 179.144 20.192 179.336 19.968C179.528 19.744 179.624 19.488 179.624 19.2C179.624 19.008 179.592 18.8267 179.528 18.656C179.464 18.4853 179.363 18.3307 179.224 18.192C179.096 18.0533 178.926 17.9253 178.712 17.808C178.51 17.6907 178.27 17.5893 177.992 17.504C177.715 17.408 177.395 17.328 177.032 17.264C176.456 17.1467 175.955 16.992 175.528 16.8C175.102 16.608 174.744 16.368 174.456 16.08C174.168 15.792 173.955 15.4667 173.816 15.104C173.678 14.7307 173.608 14.3147 173.608 13.856C173.608 13.408 173.704 12.992 173.896 12.608C174.099 12.224 174.371 11.8933 174.712 11.616C175.064 11.328 175.475 11.1093 175.944 10.96C176.414 10.8 176.92 10.72 177.464 10.72C178.04 10.72 178.568 10.7947 179.048 10.944C179.528 11.0933 179.955 11.3173 180.328 11.616C180.702 11.904 181.011 12.2613 181.256 12.688L180.04 13.888C179.827 13.536 179.587 13.2427 179.32 13.008C179.054 12.7627 178.76 12.5813 178.44 12.464C178.12 12.336 177.779 12.272 177.416 12.272C177 12.272 176.638 12.336 176.328 12.464C176.019 12.592 175.774 12.7733 175.592 13.008C175.422 13.232 175.336 13.4987 175.336 13.808C175.336 14.032 175.379 14.24 175.464 14.432C175.55 14.6133 175.678 14.7787 175.848 14.928C176.03 15.0667 176.27 15.1947 176.568 15.312C176.867 15.4187 177.224 15.5147 177.64 15.6C178.227 15.728 178.75 15.8933 179.208 16.096C179.667 16.288 180.056 16.5173 180.376 16.784C180.696 17.0507 180.936 17.3493 181.096 17.68C181.267 18.0107 181.352 18.368 181.352 18.752C181.352 19.4667 181.187 20.0853 180.856 20.608C180.526 21.1307 180.056 21.536 179.448 21.824C178.84 22.1013 178.115 22.24 177.272 22.24Z"
    fill="#7749F8"/>
  <path
    d="M187.161 22.24C186.339 22.24 185.603 22.0533 184.953 21.68C184.313 21.296 183.806 20.7787 183.433 20.128C183.059 19.4667 182.873 18.7147 182.873 17.872C182.873 17.0293 183.059 16.2827 183.433 15.632C183.806 14.9707 184.313 14.4533 184.953 14.08C185.603 13.696 186.339 13.504 187.161 13.504C187.971 13.504 188.697 13.696 189.337 14.08C189.987 14.4533 190.499 14.9707 190.873 15.632C191.246 16.2827 191.433 17.0293 191.433 17.872C191.433 18.7147 191.246 19.4667 190.873 20.128C190.499 20.7787 189.987 21.296 189.337 21.68C188.697 22.0533 187.971 22.24 187.161 22.24ZM187.161 20.736C187.662 20.736 188.11 20.6133 188.505 20.368C188.899 20.112 189.209 19.7707 189.433 19.344C189.657 18.9067 189.763 18.416 189.753 17.872C189.763 17.3173 189.657 16.8267 189.433 16.4C189.209 15.9627 188.899 15.6213 188.505 15.376C188.11 15.1307 187.662 15.008 187.161 15.008C186.659 15.008 186.206 15.136 185.801 15.392C185.406 15.6373 185.097 15.9787 184.873 16.416C184.649 16.8427 184.542 17.328 184.553 17.872C184.542 18.416 184.649 18.9067 184.873 19.344C185.097 19.7707 185.406 20.112 185.801 20.368C186.206 20.6133 186.659 20.736 187.161 20.736Z"
    fill="#7749F8"/>
  <path
    d="M193.229 22.08V13.68H194.877V15.408L194.589 15.6C194.695 15.2267 194.903 14.8853 195.213 14.576C195.522 14.256 195.89 14 196.317 13.808C196.743 13.6053 197.181 13.504 197.629 13.504C198.269 13.504 198.802 13.632 199.229 13.888C199.655 14.1333 199.975 14.512 200.189 15.024C200.402 15.536 200.509 16.1813 200.509 16.96V22.08H198.861V17.072C198.861 16.592 198.797 16.1973 198.669 15.888C198.541 15.568 198.343 15.3387 198.077 15.2C197.81 15.0507 197.479 14.9867 197.085 15.008C196.765 15.008 196.471 15.0613 196.205 15.168C195.938 15.264 195.703 15.4027 195.501 15.584C195.309 15.7653 195.154 15.9787 195.037 16.224C194.93 16.4587 194.877 16.7147 194.877 16.992V22.08H194.061C193.922 22.08 193.783 22.08 193.645 22.08C193.506 22.08 193.367 22.08 193.229 22.08Z"
    fill="#7749F8"/>
  <path
    d="M206.504 25.76C205.907 25.76 205.309 25.664 204.712 25.472C204.125 25.2907 203.651 25.0507 203.288 24.752L203.896 23.472C204.109 23.632 204.36 23.7707 204.648 23.888C204.936 24.016 205.24 24.112 205.56 24.176C205.88 24.2507 206.195 24.288 206.504 24.288C207.091 24.288 207.581 24.192 207.976 24C208.371 23.808 208.669 23.5253 208.872 23.152C209.075 22.7787 209.176 22.3147 209.176 21.76V20.144L209.352 20.256C209.299 20.5867 209.123 20.9067 208.824 21.216C208.536 21.5147 208.173 21.76 207.736 21.952C207.299 22.144 206.851 22.24 206.392 22.24C205.592 22.24 204.877 22.0533 204.248 21.68C203.629 21.296 203.139 20.7787 202.776 20.128C202.413 19.4667 202.232 18.7147 202.232 17.872C202.232 17.0293 202.408 16.2827 202.76 15.632C203.123 14.9707 203.613 14.4533 204.232 14.08C204.861 13.696 205.565 13.504 206.344 13.504C206.664 13.504 206.973 13.5467 207.272 13.632C207.571 13.7067 207.848 13.8187 208.104 13.968C208.36 14.1067 208.589 14.2613 208.792 14.432C208.995 14.6027 209.16 14.784 209.288 14.976C209.416 15.168 209.496 15.3493 209.528 15.52L209.176 15.648V13.68H210.824V21.568C210.824 22.24 210.723 22.832 210.52 23.344C210.328 23.8667 210.045 24.304 209.672 24.656C209.299 25.0187 208.845 25.2907 208.312 25.472C207.779 25.664 207.176 25.76 206.504 25.76ZM206.568 20.72C207.091 20.72 207.555 20.5973 207.96 20.352C208.365 20.1067 208.68 19.7707 208.904 19.344C209.128 18.9173 209.24 18.4267 209.24 17.872C209.24 17.3173 209.123 16.8267 208.888 16.4C208.664 15.9627 208.349 15.6213 207.944 15.376C207.549 15.1307 207.091 15.008 206.568 15.008C206.056 15.008 205.597 15.136 205.192 15.392C204.797 15.6373 204.483 15.9787 204.248 16.416C204.024 16.8427 203.912 17.328 203.912 17.872C203.912 18.416 204.024 18.9067 204.248 19.344C204.483 19.7707 204.797 20.1067 205.192 20.352C205.597 20.5973 206.056 20.72 206.568 20.72Z"
    fill="#7749F8"/>
  <path
    d="M215.954 22.24C215.356 22.24 214.834 22.1013 214.386 21.824C213.948 21.5467 213.607 21.1573 213.362 20.656C213.127 20.1547 213.01 19.5573 213.01 18.864V13.68H214.658V18.416C214.658 18.9067 214.732 19.3333 214.882 19.696C215.042 20.048 215.266 20.32 215.554 20.512C215.852 20.704 216.21 20.8 216.626 20.8C216.935 20.8 217.218 20.752 217.474 20.656C217.73 20.5493 217.948 20.4053 218.13 20.224C218.322 20.0427 218.471 19.824 218.578 19.568C218.684 19.312 218.738 19.0347 218.738 18.736V13.68H220.386V22.08H218.738V20.32L219.026 20.128C218.898 20.5227 218.679 20.88 218.37 21.2C218.071 21.52 217.714 21.776 217.298 21.968C216.882 22.1493 216.434 22.24 215.954 22.24Z"
    fill="#7749F8"/>
  <path
    d="M222.697 22.08V13.68H224.361V16.32L224.201 15.68C224.319 15.2747 224.516 14.9067 224.793 14.576C225.081 14.2453 225.407 13.984 225.769 13.792C226.143 13.6 226.527 13.504 226.921 13.504C227.103 13.504 227.273 13.52 227.433 13.552C227.604 13.584 227.737 13.6213 227.833 13.664L227.401 15.456C227.273 15.4027 227.129 15.36 226.969 15.328C226.82 15.2853 226.671 15.264 226.521 15.264C226.233 15.264 225.956 15.3227 225.689 15.44C225.433 15.5467 225.204 15.7013 225.001 15.904C224.809 16.096 224.655 16.3253 224.537 16.592C224.42 16.848 224.361 17.1307 224.361 17.44V22.08H222.697Z"
    fill="#7749F8"/>
  <path
    d="M101.851 37.112L101.767 35.418L106.905 30.28H108.893L101.851 37.112ZM100.591 40.08V30.28H102.103V40.08H100.591ZM107.087 40.08L103.335 35.068L104.455 34.102L108.977 40.08H107.087Z"
    fill="#A188E7"/>
  <path d="M110.509 40.08V29.72H111.951V40.08H110.509Z" fill="#A188E7"/>
  <path
    d="M114.233 40.08V32.73H115.675V40.08H114.233ZM114.933 31.106C114.625 31.106 114.387 31.0267 114.219 30.868C114.051 30.7093 113.967 30.4853 113.967 30.196C113.967 29.9253 114.051 29.706 114.219 29.538C114.396 29.37 114.634 29.286 114.933 29.286C115.241 29.286 115.479 29.3653 115.647 29.524C115.815 29.6827 115.899 29.9067 115.899 30.196C115.899 30.4667 115.81 30.686 115.633 30.854C115.465 31.022 115.231 31.106 114.933 31.106Z"
    fill="#A188E7"/>
  <path
    d="M117.891 40.08V32.73H119.333V34.242L119.081 34.41C119.175 34.0833 119.357 33.7847 119.627 33.514C119.898 33.234 120.22 33.01 120.593 32.842C120.967 32.6647 121.349 32.576 121.741 32.576C122.301 32.576 122.768 32.688 123.141 32.912C123.515 33.1267 123.795 33.458 123.981 33.906C124.168 34.354 124.261 34.9187 124.261 35.6V40.08H122.819V35.698C122.819 35.278 122.763 34.9327 122.651 34.662C122.539 34.382 122.367 34.1813 122.133 34.06C121.9 33.9293 121.611 33.8733 121.265 33.892C120.985 33.892 120.729 33.9387 120.495 34.032C120.262 34.116 120.057 34.2373 119.879 34.396C119.711 34.5547 119.576 34.7413 119.473 34.956C119.38 35.1613 119.333 35.3853 119.333 35.628V40.08H118.619C118.498 40.08 118.377 40.08 118.255 40.08C118.134 40.08 118.013 40.08 117.891 40.08Z"
    fill="#A188E7"/>
  <path
    d="M126.455 40.08V32.73H127.897V40.08H126.455ZM127.155 31.106C126.847 31.106 126.609 31.0267 126.441 30.868C126.273 30.7093 126.189 30.4853 126.189 30.196C126.189 29.9253 126.273 29.706 126.441 29.538C126.619 29.37 126.857 29.286 127.155 29.286C127.463 29.286 127.701 29.3653 127.869 29.524C128.037 29.6827 128.121 29.9067 128.121 30.196C128.121 30.4667 128.033 30.686 127.855 30.854C127.687 31.022 127.454 31.106 127.155 31.106Z"
    fill="#A188E7"/>
  <path
    d="M131.43 37.784L131.36 36.216L134.874 32.73H136.82L131.43 37.784ZM130.114 40.08V29.72H131.556V40.08H130.114ZM135.07 40.08L132.298 36.846L133.32 35.908L136.918 40.08H135.07Z"
    fill="#A188E7"/>
  <path
    d="M142.359 40.08V30.28H146.349C146.881 30.28 147.361 30.4153 147.791 30.686C148.229 30.9473 148.579 31.3067 148.841 31.764C149.102 32.2213 149.233 32.73 149.233 33.29C149.233 33.85 149.102 34.3587 148.841 34.816C148.579 35.2733 148.229 35.642 147.791 35.922C147.361 36.1927 146.881 36.328 146.349 36.328H143.871V40.08H142.359ZM143.871 34.872H146.321C146.573 34.872 146.801 34.802 147.007 34.662C147.212 34.5127 147.375 34.3213 147.497 34.088C147.627 33.8453 147.693 33.5793 147.693 33.29C147.693 33.0007 147.627 32.7393 147.497 32.506C147.375 32.2727 147.212 32.086 147.007 31.946C146.801 31.806 146.573 31.736 146.321 31.736H143.871V34.872Z"
    fill="#A188E7"/>
  <path
    d="M153.318 40.22C152.702 40.22 152.146 40.1127 151.652 39.898C151.157 39.6833 150.746 39.366 150.42 38.946L151.4 38.106C151.68 38.4327 151.983 38.6707 152.31 38.82C152.646 38.96 153.024 39.03 153.444 39.03C153.612 39.03 153.766 39.0113 153.906 38.974C154.055 38.9273 154.181 38.862 154.284 38.778C154.396 38.694 154.48 38.596 154.536 38.484C154.592 38.3627 154.62 38.232 154.62 38.092C154.62 37.8493 154.531 37.6533 154.354 37.504C154.26 37.4387 154.111 37.3687 153.906 37.294C153.71 37.21 153.453 37.126 153.136 37.042C152.594 36.902 152.151 36.7433 151.806 36.566C151.46 36.3887 151.194 36.188 151.008 35.964C150.868 35.7867 150.765 35.5953 150.7 35.39C150.634 35.1753 150.602 34.942 150.602 34.69C150.602 34.382 150.667 34.102 150.798 33.85C150.938 33.5887 151.124 33.3647 151.358 33.178C151.6 32.982 151.88 32.8327 152.198 32.73C152.524 32.6273 152.87 32.576 153.234 32.576C153.579 32.576 153.92 32.6227 154.256 32.716C154.601 32.8093 154.918 32.9447 155.208 33.122C155.497 33.2993 155.74 33.5093 155.936 33.752L155.11 34.662C154.932 34.4847 154.736 34.3307 154.522 34.2C154.316 34.06 154.106 33.9527 153.892 33.878C153.677 33.8033 153.481 33.766 153.304 33.766C153.108 33.766 152.93 33.7847 152.772 33.822C152.613 33.8593 152.478 33.9153 152.366 33.99C152.263 34.0647 152.184 34.158 152.128 34.27C152.072 34.382 152.044 34.508 152.044 34.648C152.053 34.7693 152.081 34.886 152.128 34.998C152.184 35.1007 152.258 35.1893 152.352 35.264C152.454 35.3387 152.608 35.418 152.814 35.502C153.019 35.586 153.28 35.6653 153.598 35.74C154.064 35.8613 154.447 35.9967 154.746 36.146C155.054 36.286 155.296 36.4493 155.474 36.636C155.66 36.8133 155.791 37.0187 155.866 37.252C155.94 37.4853 155.978 37.7467 155.978 38.036C155.978 38.456 155.856 38.834 155.614 39.17C155.38 39.4967 155.063 39.7533 154.662 39.94C154.26 40.1267 153.812 40.22 153.318 40.22Z"
    fill="#A188E7"/>
  <path
    d="M157.805 40.08V32.73H159.247V40.08H157.805ZM158.505 31.106C158.197 31.106 157.959 31.0267 157.791 30.868C157.623 30.7093 157.539 30.4853 157.539 30.196C157.539 29.9253 157.623 29.706 157.791 29.538C157.968 29.37 158.206 29.286 158.505 29.286C158.813 29.286 159.051 29.3653 159.219 29.524C159.387 29.6827 159.471 29.9067 159.471 30.196C159.471 30.4667 159.382 30.686 159.205 30.854C159.037 31.022 158.804 31.106 158.505 31.106Z"
    fill="#A188E7"/>
  <path
    d="M162.779 37.784L162.709 36.216L166.223 32.73H168.169L162.779 37.784ZM161.463 40.08V29.72H162.905V40.08H161.463ZM166.419 40.08L163.647 36.846L164.669 35.908L168.267 40.08H166.419Z"
    fill="#A188E7"/>
  <path
    d="M172.41 40.22C171.691 40.22 171.047 40.0567 170.478 39.73C169.918 39.394 169.475 38.9413 169.148 38.372C168.821 37.7933 168.658 37.1353 168.658 36.398C168.658 35.6607 168.821 35.0073 169.148 34.438C169.475 33.8593 169.918 33.4067 170.478 33.08C171.047 32.744 171.691 32.576 172.41 32.576C173.119 32.576 173.754 32.744 174.314 33.08C174.883 33.4067 175.331 33.8593 175.658 34.438C175.985 35.0073 176.148 35.6607 176.148 36.398C176.148 37.1353 175.985 37.7933 175.658 38.372C175.331 38.9413 174.883 39.394 174.314 39.73C173.754 40.0567 173.119 40.22 172.41 40.22ZM172.41 38.904C172.849 38.904 173.241 38.7967 173.586 38.582C173.931 38.358 174.202 38.0593 174.398 37.686C174.594 37.3033 174.687 36.874 174.678 36.398C174.687 35.9127 174.594 35.4833 174.398 35.11C174.202 34.7273 173.931 34.4287 173.586 34.214C173.241 33.9993 172.849 33.892 172.41 33.892C171.971 33.892 171.575 34.004 171.22 34.228C170.875 34.4427 170.604 34.7413 170.408 35.124C170.212 35.4973 170.119 35.922 170.128 36.398C170.119 36.874 170.212 37.3033 170.408 37.686C170.604 38.0593 170.875 38.358 171.22 38.582C171.575 38.7967 171.971 38.904 172.41 38.904Z"
    fill="#A188E7"/>
  <path d="M177.747 40.08V29.72H179.189V40.08H177.747Z" fill="#A188E7"/>
  <path
    d="M184.4 40.22C183.682 40.22 183.038 40.0567 182.468 39.73C181.908 39.394 181.465 38.9413 181.138 38.372C180.812 37.7933 180.648 37.1353 180.648 36.398C180.648 35.6607 180.812 35.0073 181.138 34.438C181.465 33.8593 181.908 33.4067 182.468 33.08C183.038 32.744 183.682 32.576 184.4 32.576C185.11 32.576 185.744 32.744 186.304 33.08C186.874 33.4067 187.322 33.8593 187.648 34.438C187.975 35.0073 188.138 35.6607 188.138 36.398C188.138 37.1353 187.975 37.7933 187.648 38.372C187.322 38.9413 186.874 39.394 186.304 39.73C185.744 40.0567 185.11 40.22 184.4 40.22ZM184.4 38.904C184.839 38.904 185.231 38.7967 185.576 38.582C185.922 38.358 186.192 38.0593 186.388 37.686C186.584 37.3033 186.678 36.874 186.668 36.398C186.678 35.9127 186.584 35.4833 186.388 35.11C186.192 34.7273 185.922 34.4287 185.576 34.214C185.231 33.9993 184.839 33.892 184.4 33.892C183.962 33.892 183.565 34.004 183.21 34.228C182.865 34.4427 182.594 34.7413 182.398 35.124C182.202 35.4973 182.109 35.922 182.118 36.398C182.109 36.874 182.202 37.3033 182.398 37.686C182.594 38.0593 182.865 38.358 183.21 38.582C183.565 38.7967 183.962 38.904 184.4 38.904Z"
    fill="#A188E7"/>
  <path
    d="M193 43.3C192.477 43.3 191.954 43.216 191.432 43.048C190.918 42.8893 190.503 42.6793 190.186 42.418L190.718 41.298C190.904 41.438 191.124 41.5593 191.376 41.662C191.628 41.774 191.894 41.858 192.174 41.914C192.454 41.9793 192.729 42.012 193 42.012C193.513 42.012 193.942 41.928 194.288 41.76C194.633 41.592 194.894 41.3447 195.072 41.018C195.249 40.6913 195.338 40.2853 195.338 39.8V38.386L195.492 38.484C195.445 38.7733 195.291 39.0533 195.03 39.324C194.778 39.5853 194.46 39.8 194.078 39.968C193.695 40.136 193.303 40.22 192.902 40.22C192.202 40.22 191.576 40.0567 191.026 39.73C190.484 39.394 190.055 38.9413 189.738 38.372C189.42 37.7933 189.262 37.1353 189.262 36.398C189.262 35.6607 189.416 35.0073 189.724 34.438C190.041 33.8593 190.47 33.4067 191.012 33.08C191.562 32.744 192.178 32.576 192.86 32.576C193.14 32.576 193.41 32.6133 193.672 32.688C193.933 32.7533 194.176 32.8513 194.4 32.982C194.624 33.1033 194.824 33.2387 195.002 33.388C195.179 33.5373 195.324 33.696 195.436 33.864C195.548 34.032 195.618 34.1907 195.646 34.34L195.338 34.452V32.73H196.78V39.632C196.78 40.22 196.691 40.738 196.514 41.186C196.346 41.6433 196.098 42.026 195.772 42.334C195.445 42.6513 195.048 42.8893 194.582 43.048C194.115 43.216 193.588 43.3 193 43.3ZM193.056 38.89C193.513 38.89 193.919 38.7827 194.274 38.568C194.628 38.3533 194.904 38.0593 195.1 37.686C195.296 37.3127 195.394 36.8833 195.394 36.398C195.394 35.9127 195.291 35.4833 195.086 35.11C194.89 34.7273 194.614 34.4287 194.26 34.214C193.914 33.9993 193.513 33.892 193.056 33.892C192.608 33.892 192.206 34.004 191.852 34.228C191.506 34.4427 191.231 34.7413 191.026 35.124C190.83 35.4973 190.732 35.922 190.732 36.398C190.732 36.874 190.83 37.3033 191.026 37.686C191.231 38.0593 191.506 38.3533 191.852 38.568C192.206 38.7827 192.608 38.89 193.056 38.89Z"
    fill="#A188E7"/>
</svg>
