<svg width="158" height="95" viewBox="0 0 158 95" fill="none" xmlns="http://www.w3.org/2000/svg">
  <path fill-rule="evenodd" clip-rule="evenodd"
        d="M78.4999 47.8125C84.4175 47.8125 90.0928 45.4617 94.2772 41.2773C98.4616 37.0929 100.812 31.4176 100.812 25.5C100.812 19.5824 98.4616 13.9071 94.2772 9.72268C90.0928 5.53827 84.4175 3.1875 78.4999 3.1875C72.5822 3.1875 66.907 5.53827 62.7225 9.72268C58.5381 13.9071 56.1874 19.5824 56.1874 25.5C56.1874 31.4176 58.5381 37.0929 62.7225 41.2773C66.907 45.4617 72.5822 47.8125 78.4999 47.8125ZM78.4999 51C85.2629 51 91.7489 48.3134 96.5311 43.5312C101.313 38.749 104 32.263 104 25.5C104 18.737 101.313 12.251 96.5311 7.46878C91.7489 2.6866 85.2629 0 78.4999 0C71.7368 0 65.2508 2.6866 60.4686 7.46878C55.6865 12.251 52.9999 18.737 52.9999 25.5C52.9999 32.263 55.6865 38.749 60.4686 43.5312C65.2508 48.3134 71.7368 51 78.4999 51Z"
        fill="#5227CC"/>
  <path fill-rule="evenodd" clip-rule="evenodd"
        d="M66.6587 30.4946C67.0248 30.2833 67.4598 30.226 67.8681 30.3354C68.2764 30.4448 68.6245 30.7119 68.8358 31.0779C69.8147 32.7748 71.2234 34.1837 72.92 35.163C74.6167 36.1423 76.5414 36.6572 78.5003 36.6561C80.4593 36.6572 82.3839 36.1423 84.0806 35.163C85.7772 34.1837 87.1859 32.7748 88.1648 31.0779C88.2687 30.8952 88.4077 30.7349 88.5738 30.6061C88.7399 30.4773 88.9299 30.3827 89.1327 30.3276C89.3355 30.2725 89.5473 30.2581 89.7557 30.2852C89.9641 30.3123 90.1652 30.3804 90.3472 30.4855C90.5292 30.5905 90.6886 30.7306 90.8163 30.8976C90.944 31.0645 91.0374 31.2551 91.0911 31.4583C91.1448 31.6615 91.1578 31.8733 91.1293 32.0816C91.1009 32.2898 91.0315 32.4904 90.9252 32.6717C89.6665 34.8531 87.8554 36.6644 85.6743 37.9234C83.4931 39.1825 81.0188 39.8447 78.5003 39.8436C75.9818 39.8447 73.5075 39.1825 71.3263 37.9234C69.1452 36.6644 67.3341 34.8531 66.0754 32.6717C65.8641 32.3056 65.8068 31.8706 65.9162 31.4624C66.0256 31.0541 66.2927 30.706 66.6587 30.4946Z"
        fill="#5227CC"/>
  <path
    d="M75.3124 20.7188C75.3124 23.358 73.8844 25.5 72.1249 25.5C70.3654 25.5 68.9374 23.358 68.9374 20.7188C68.9374 18.0795 70.3654 15.9375 72.1249 15.9375C73.8844 15.9375 75.3124 18.0795 75.3124 20.7188ZM88.0624 20.7188C88.0624 23.358 86.6344 25.5 84.8749 25.5C83.1154 25.5 81.6874 23.358 81.6874 20.7188C81.6874 18.0795 83.1154 15.9375 84.8749 15.9375C86.6344 15.9375 88.0624 18.0795 88.0624 20.7188Z"
    fill="#5227CC"/>
  <path
    d="M0.575684 73V61.8H7.63168V63.464H2.30368V71.336H7.63168V73H0.575684ZM1.35968 68.088V66.424H6.75168V68.088H1.35968Z"
    fill="#7749F8"/>
  <path
    d="M13.4777 73.16C12.699 73.16 12.0004 72.968 11.3817 72.584C10.7737 72.2 10.2884 71.6773 9.92568 71.016C9.57368 70.3547 9.39768 69.6133 9.39768 68.792C9.39768 67.9707 9.57368 67.2293 9.92568 66.568C10.2884 65.9067 10.7737 65.384 11.3817 65C12.0004 64.616 12.699 64.424 13.4777 64.424C14.2244 64.424 14.9017 64.5787 15.5097 64.888C16.1284 65.1867 16.5977 65.5973 16.9177 66.12L16.0057 67.24C15.835 66.9947 15.6164 66.7707 15.3497 66.568C15.083 66.3653 14.8004 66.2053 14.5017 66.088C14.203 65.9707 13.915 65.912 13.6377 65.912C13.1257 65.912 12.667 66.04 12.2617 66.296C11.867 66.5413 11.5524 66.8827 11.3177 67.32C11.083 67.7573 10.9657 68.248 10.9657 68.792C10.9657 69.336 11.0884 69.8267 11.3337 70.264C11.579 70.6907 11.9044 71.032 12.3097 71.288C12.715 71.544 13.163 71.672 13.6537 71.672C13.9417 71.672 14.219 71.624 14.4857 71.528C14.763 71.432 15.0297 71.288 15.2857 71.096C15.5417 70.904 15.7817 70.6693 16.0057 70.392L16.9177 71.512C16.5764 71.992 16.0857 72.3867 15.4457 72.696C14.8164 73.0053 14.1604 73.16 13.4777 73.16Z"
    fill="#7749F8"/>
  <path
    d="M22.3922 73.16C21.5282 73.16 20.7602 72.9787 20.0882 72.616C19.4269 72.2427 18.9042 71.736 18.5202 71.096C18.1469 70.456 17.9602 69.72 17.9602 68.888C17.9602 68.2267 18.0669 67.624 18.2802 67.08C18.4935 66.536 18.7868 66.0667 19.1602 65.672C19.5442 65.2667 19.9975 64.9573 20.5202 64.744C21.0535 64.52 21.6295 64.408 22.2482 64.408C22.7922 64.408 23.2989 64.5147 23.7682 64.728C24.2375 64.9307 24.6429 65.2133 24.9842 65.576C25.3362 65.9387 25.6028 66.3707 25.7842 66.872C25.9762 67.3627 26.0669 67.9013 26.0562 68.488L26.0402 69.192H19.1762L18.8082 67.88H24.6162L24.3762 68.152V67.768C24.3442 67.416 24.2268 67.1013 24.0242 66.824C23.8215 66.5467 23.5655 66.328 23.2562 66.168C22.9469 66.008 22.6109 65.928 22.2482 65.928C21.6722 65.928 21.1868 66.04 20.7922 66.264C20.3975 66.4773 20.0988 66.7973 19.8962 67.224C19.6935 67.64 19.5922 68.1573 19.5922 68.776C19.5922 69.3627 19.7149 69.8747 19.9602 70.312C20.2055 70.7387 20.5522 71.0693 21.0002 71.304C21.4482 71.5387 21.9655 71.656 22.5522 71.656C22.9682 71.656 23.3522 71.5867 23.7042 71.448C24.0669 71.3093 24.4562 71.0587 24.8722 70.696L25.7042 71.864C25.4482 72.12 25.1335 72.344 24.7602 72.536C24.3975 72.728 24.0082 72.8827 23.5922 73C23.1869 73.1067 22.7868 73.16 22.3922 73.16Z"
    fill="#7749F8"/>
  <path
    d="M27.8152 73V64.6H29.4792V66.392L29.1752 66.584C29.2605 66.3067 29.3939 66.04 29.5752 65.784C29.7672 65.528 29.9965 65.304 30.2632 65.112C30.5405 64.9093 30.8339 64.7493 31.1432 64.632C31.4632 64.5147 31.7885 64.456 32.1192 64.456C32.5992 64.456 33.0205 64.536 33.3832 64.696C33.7458 64.856 34.0445 65.096 34.2792 65.416C34.5138 65.736 34.6845 66.136 34.7912 66.616L34.5352 66.552L34.6472 66.28C34.7645 66.0347 34.9245 65.8053 35.1272 65.592C35.3405 65.368 35.5805 65.1707 35.8472 65C36.1138 64.8293 36.3965 64.696 36.6952 64.6C36.9939 64.504 37.2872 64.456 37.5752 64.456C38.2045 64.456 38.7218 64.584 39.1272 64.84C39.5432 65.096 39.8525 65.4853 40.0552 66.008C40.2685 66.5307 40.3752 67.1813 40.3752 67.96V73H38.7112V68.056C38.7112 67.576 38.6472 67.1867 38.5192 66.888C38.4019 66.5787 38.2205 66.3493 37.9752 66.2C37.7299 66.0507 37.4152 65.976 37.0312 65.976C36.7325 65.976 36.4499 66.0293 36.1832 66.136C35.9272 66.232 35.7032 66.3707 35.5112 66.552C35.3192 66.7333 35.1699 66.9467 35.0632 67.192C34.9565 67.4267 34.9032 67.688 34.9032 67.976V73H33.2392V68.024C33.2392 67.5867 33.1752 67.2187 33.0472 66.92C32.9192 66.6107 32.7325 66.376 32.4872 66.216C32.2419 66.056 31.9432 65.976 31.5912 65.976C31.2925 65.976 31.0152 66.0293 30.7592 66.136C30.5032 66.232 30.2792 66.3707 30.0872 66.552C29.8952 66.7227 29.7458 66.9307 29.6392 67.176C29.5325 67.4107 29.4792 67.6667 29.4792 67.944V73H27.8152Z"
    fill="#7749F8"/>
  <path
    d="M47.4819 73V61.8H51.8659C52.6659 61.8 53.3859 61.9333 54.0259 62.2C54.6766 62.4667 55.2313 62.8507 55.6899 63.352C56.1486 63.8533 56.5006 64.4453 56.7459 65.128C56.9913 65.8107 57.1139 66.568 57.1139 67.4C57.1139 68.232 56.9913 68.9947 56.7459 69.688C56.5006 70.3707 56.1486 70.9627 55.6899 71.464C55.2419 71.9547 54.6926 72.3333 54.0419 72.6C53.3913 72.8667 52.6659 73 51.8659 73H47.4819ZM49.2099 71.512L49.1619 71.336H51.7859C52.3513 71.336 52.8526 71.2453 53.2899 71.064C53.7379 70.8827 54.1113 70.6267 54.4099 70.296C54.7193 69.9547 54.9539 69.5387 55.1139 69.048C55.2739 68.5573 55.3539 68.008 55.3539 67.4C55.3539 66.792 55.2739 66.248 55.1139 65.768C54.9539 65.2773 54.7193 64.8613 54.4099 64.52C54.1006 64.1787 53.7273 63.9173 53.2899 63.736C52.8526 63.5547 52.3513 63.464 51.7859 63.464H49.1139L49.2099 63.32V71.512Z"
    fill="#7749F8"/>
  <path
    d="M62.8107 73.16C61.9894 73.16 61.2534 72.9733 60.6027 72.6C59.9627 72.216 59.456 71.6987 59.0827 71.048C58.7094 70.3867 58.5227 69.6347 58.5227 68.792C58.5227 67.9493 58.7094 67.2027 59.0827 66.552C59.456 65.8907 59.9627 65.3733 60.6027 65C61.2534 64.616 61.9894 64.424 62.8107 64.424C63.6214 64.424 64.3467 64.616 64.9867 65C65.6374 65.3733 66.1493 65.8907 66.5227 66.552C66.896 67.2027 67.0827 67.9493 67.0827 68.792C67.0827 69.6347 66.896 70.3867 66.5227 71.048C66.1493 71.6987 65.6374 72.216 64.9867 72.6C64.3467 72.9733 63.6214 73.16 62.8107 73.16ZM62.8107 71.656C63.312 71.656 63.76 71.5333 64.1547 71.288C64.5493 71.032 64.8587 70.6907 65.0827 70.264C65.3067 69.8267 65.4134 69.336 65.4027 68.792C65.4134 68.2373 65.3067 67.7467 65.0827 67.32C64.8587 66.8827 64.5493 66.5413 64.1547 66.296C63.76 66.0507 63.312 65.928 62.8107 65.928C62.3094 65.928 61.856 66.056 61.4507 66.312C61.056 66.5573 60.7467 66.8987 60.5227 67.336C60.2987 67.7627 60.192 68.248 60.2027 68.792C60.192 69.336 60.2987 69.8267 60.5227 70.264C60.7467 70.6907 61.056 71.032 61.4507 71.288C61.856 71.5333 62.3094 71.656 62.8107 71.656Z"
    fill="#7749F8"/>
  <path
    d="M72.6384 76.68C72.0411 76.68 71.4438 76.584 70.8464 76.392C70.2598 76.2107 69.7851 75.9707 69.4224 75.672L70.0304 74.392C70.2438 74.552 70.4944 74.6907 70.7824 74.808C71.0704 74.936 71.3744 75.032 71.6944 75.096C72.0144 75.1707 72.3291 75.208 72.6384 75.208C73.2251 75.208 73.7158 75.112 74.1104 74.92C74.5051 74.728 74.8038 74.4453 75.0064 74.072C75.2091 73.6987 75.3104 73.2347 75.3104 72.68V71.064L75.4864 71.176C75.4331 71.5067 75.2571 71.8267 74.9584 72.136C74.6704 72.4347 74.3078 72.68 73.8704 72.872C73.4331 73.064 72.9851 73.16 72.5264 73.16C71.7264 73.16 71.0118 72.9733 70.3824 72.6C69.7638 72.216 69.2731 71.6987 68.9104 71.048C68.5478 70.3867 68.3664 69.6347 68.3664 68.792C68.3664 67.9493 68.5424 67.2027 68.8944 66.552C69.2571 65.8907 69.7478 65.3733 70.3664 65C70.9958 64.616 71.6998 64.424 72.4784 64.424C72.7984 64.424 73.1078 64.4667 73.4064 64.552C73.7051 64.6267 73.9824 64.7387 74.2384 64.888C74.4944 65.0267 74.7238 65.1813 74.9264 65.352C75.1291 65.5227 75.2944 65.704 75.4224 65.896C75.5504 66.088 75.6304 66.2693 75.6624 66.44L75.3104 66.568V64.6H76.9584V72.488C76.9584 73.16 76.8571 73.752 76.6544 74.264C76.4624 74.7867 76.1798 75.224 75.8064 75.576C75.4331 75.9387 74.9798 76.2107 74.4464 76.392C73.9131 76.584 73.3104 76.68 72.6384 76.68ZM72.7024 71.64C73.2251 71.64 73.6891 71.5173 74.0944 71.272C74.4998 71.0267 74.8144 70.6907 75.0384 70.264C75.2624 69.8373 75.3744 69.3467 75.3744 68.792C75.3744 68.2373 75.2571 67.7467 75.0224 67.32C74.7984 66.8827 74.4838 66.5413 74.0784 66.296C73.6838 66.0507 73.2251 65.928 72.7024 65.928C72.1904 65.928 71.7318 66.056 71.3264 66.312C70.9318 66.5573 70.6171 66.8987 70.3824 67.336C70.1584 67.7627 70.0464 68.248 70.0464 68.792C70.0464 69.336 70.1584 69.8267 70.3824 70.264C70.6171 70.6907 70.9318 71.0267 71.3264 71.272C71.7318 71.5173 72.1904 71.64 72.7024 71.64ZM72.9264 63.576C72.2438 63.576 71.6784 63.3573 71.2304 62.92C70.7824 62.472 70.4838 61.8693 70.3344 61.112L71.5184 60.92C71.6571 61.336 71.8438 61.6667 72.0784 61.912C72.3238 62.1573 72.6064 62.28 72.9264 62.28C73.2464 62.28 73.5238 62.1573 73.7584 61.912C74.0038 61.6667 74.1958 61.336 74.3344 60.92L75.5184 61.112C75.3691 61.8693 75.0704 62.472 74.6224 62.92C74.1744 63.3573 73.6091 63.576 72.9264 63.576Z"
    fill="#7749F8"/>
  <path
    d="M82.5011 73.16C81.8077 73.16 81.1731 72.968 80.5971 72.584C80.0317 72.2 79.5784 71.6773 79.2371 71.016C78.8957 70.3547 78.7251 69.608 78.7251 68.776C78.7251 67.9333 78.8957 67.1867 79.2371 66.536C79.5891 65.8747 80.0584 65.3573 80.6451 64.984C81.2424 64.6107 81.9091 64.424 82.6451 64.424C83.0824 64.424 83.4824 64.488 83.8451 64.616C84.2077 64.744 84.5224 64.9253 84.7891 65.16C85.0664 65.384 85.2904 65.6453 85.4611 65.944C85.6424 66.2427 85.7544 66.5627 85.7971 66.904L85.4291 66.776V64.6H87.0931V73H85.4291V71L85.8131 70.888C85.7491 71.176 85.6157 71.4587 85.4131 71.736C85.2211 72.0027 84.9704 72.2427 84.6611 72.456C84.3624 72.6693 84.0264 72.84 83.6531 72.968C83.2904 73.096 82.9064 73.16 82.5011 73.16ZM82.9331 71.64C83.4344 71.64 83.8771 71.5173 84.2611 71.272C84.6451 71.0267 84.9437 70.6907 85.1571 70.264C85.3811 69.8267 85.4931 69.3307 85.4931 68.776C85.4931 68.232 85.3811 67.7467 85.1571 67.32C84.9437 66.8933 84.6451 66.5573 84.2611 66.312C83.8771 66.0667 83.4344 65.944 82.9331 65.944C82.4424 65.944 82.0051 66.0667 81.6211 66.312C81.2477 66.5573 80.9491 66.8933 80.7251 67.32C80.5117 67.7467 80.4051 68.232 80.4051 68.776C80.4051 69.3307 80.5117 69.8267 80.7251 70.264C80.9491 70.6907 81.2477 71.0267 81.6211 71.272C82.0051 71.5173 82.4424 71.64 82.9331 71.64Z"
    fill="#7749F8"/>
  <path
    d="M89.3941 73V64.6H91.0421V66.328L90.7541 66.52C90.8607 66.1467 91.0687 65.8053 91.3781 65.496C91.6874 65.176 92.0554 64.92 92.4821 64.728C92.9087 64.5253 93.3461 64.424 93.7941 64.424C94.4341 64.424 94.9674 64.552 95.3941 64.808C95.8207 65.0533 96.1407 65.432 96.3541 65.944C96.5674 66.456 96.6741 67.1013 96.6741 67.88V73H95.0261V67.992C95.0261 67.512 94.9621 67.1173 94.8341 66.808C94.7061 66.488 94.5087 66.2587 94.2421 66.12C93.9754 65.9707 93.6447 65.9067 93.2501 65.928C92.9301 65.928 92.6367 65.9813 92.3701 66.088C92.1034 66.184 91.8687 66.3227 91.6661 66.504C91.4741 66.6853 91.3194 66.8987 91.2021 67.144C91.0954 67.3787 91.0421 67.6347 91.0421 67.912V73H90.2261C90.0874 73 89.9487 73 89.8101 73C89.6714 73 89.5327 73 89.3941 73Z"
    fill="#7749F8"/>
  <path
    d="M107.266 73.16C106.658 73.16 106.093 73.08 105.57 72.92C105.058 72.76 104.589 72.52 104.162 72.2C103.746 71.8693 103.373 71.464 103.042 70.984L104.226 69.624C104.749 70.3707 105.25 70.888 105.73 71.176C106.21 71.464 106.781 71.608 107.442 71.608C107.847 71.608 108.215 71.544 108.546 71.416C108.877 71.288 109.138 71.112 109.33 70.888C109.522 70.664 109.618 70.408 109.618 70.12C109.618 69.928 109.586 69.7467 109.522 69.576C109.458 69.4053 109.357 69.2507 109.218 69.112C109.09 68.9733 108.919 68.8453 108.706 68.728C108.503 68.6107 108.263 68.5093 107.986 68.424C107.709 68.328 107.389 68.248 107.026 68.184C106.45 68.0667 105.949 67.912 105.522 67.72C105.095 67.528 104.738 67.288 104.45 67C104.162 66.712 103.949 66.3867 103.81 66.024C103.671 65.6507 103.602 65.2347 103.602 64.776C103.602 64.328 103.698 63.912 103.89 63.528C104.093 63.144 104.365 62.8133 104.706 62.536C105.058 62.248 105.469 62.0293 105.938 61.88C106.407 61.72 106.914 61.64 107.458 61.64C108.034 61.64 108.562 61.7147 109.042 61.864C109.522 62.0133 109.949 62.2373 110.322 62.536C110.695 62.824 111.005 63.1813 111.25 63.608L110.034 64.808C109.821 64.456 109.581 64.1627 109.314 63.928C109.047 63.6827 108.754 63.5013 108.434 63.384C108.114 63.256 107.773 63.192 107.41 63.192C106.994 63.192 106.631 63.256 106.322 63.384C106.013 63.512 105.767 63.6933 105.586 63.928C105.415 64.152 105.33 64.4187 105.33 64.728C105.33 64.952 105.373 65.16 105.458 65.352C105.543 65.5333 105.671 65.6987 105.842 65.848C106.023 65.9867 106.263 66.1147 106.562 66.232C106.861 66.3387 107.218 66.4347 107.634 66.52C108.221 66.648 108.743 66.8133 109.202 67.016C109.661 67.208 110.05 67.4373 110.37 67.704C110.69 67.9707 110.93 68.2693 111.09 68.6C111.261 68.9307 111.346 69.288 111.346 69.672C111.346 70.3867 111.181 71.0053 110.85 71.528C110.519 72.0507 110.05 72.456 109.442 72.744C108.834 73.0213 108.109 73.16 107.266 73.16Z"
    fill="#7749F8"/>
  <path
    d="M117.154 73.16C116.333 73.16 115.597 72.9733 114.946 72.6C114.306 72.216 113.8 71.6987 113.426 71.048C113.053 70.3867 112.866 69.6347 112.866 68.792C112.866 67.9493 113.053 67.2027 113.426 66.552C113.8 65.8907 114.306 65.3733 114.946 65C115.597 64.616 116.333 64.424 117.154 64.424C117.965 64.424 118.69 64.616 119.33 65C119.981 65.3733 120.493 65.8907 120.866 66.552C121.24 67.2027 121.426 67.9493 121.426 68.792C121.426 69.6347 121.24 70.3867 120.866 71.048C120.493 71.6987 119.981 72.216 119.33 72.6C118.69 72.9733 117.965 73.16 117.154 73.16ZM117.154 71.656C117.656 71.656 118.104 71.5333 118.498 71.288C118.893 71.032 119.202 70.6907 119.426 70.264C119.65 69.8267 119.757 69.336 119.746 68.792C119.757 68.2373 119.65 67.7467 119.426 67.32C119.202 66.8827 118.893 66.5413 118.498 66.296C118.104 66.0507 117.656 65.928 117.154 65.928C116.653 65.928 116.2 66.056 115.794 66.312C115.4 66.5573 115.09 66.8987 114.866 67.336C114.642 67.7627 114.536 68.248 114.546 68.792C114.536 69.336 114.642 69.8267 114.866 70.264C115.09 70.6907 115.4 71.032 115.794 71.288C116.2 71.5333 116.653 71.656 117.154 71.656Z"
    fill="#7749F8"/>
  <path
    d="M123.222 73V64.6H124.87V66.328L124.582 66.52C124.689 66.1467 124.897 65.8053 125.206 65.496C125.516 65.176 125.884 64.92 126.31 64.728C126.737 64.5253 127.174 64.424 127.622 64.424C128.262 64.424 128.796 64.552 129.222 64.808C129.649 65.0533 129.969 65.432 130.182 65.944C130.396 66.456 130.502 67.1013 130.502 67.88V73H128.854V67.992C128.854 67.512 128.79 67.1173 128.662 66.808C128.534 66.488 128.337 66.2587 128.07 66.12C127.804 65.9707 127.473 65.9067 127.078 65.928C126.758 65.928 126.465 65.9813 126.198 66.088C125.932 66.184 125.697 66.3227 125.494 66.504C125.302 66.6853 125.148 66.8987 125.03 67.144C124.924 67.3787 124.87 67.6347 124.87 67.912V73H124.054C123.916 73 123.777 73 123.638 73C123.5 73 123.361 73 123.222 73Z"
    fill="#7749F8"/>
  <path
    d="M136.498 76.68C135.9 76.68 135.303 76.584 134.706 76.392C134.119 76.2107 133.644 75.9707 133.282 75.672L133.89 74.392C134.103 74.552 134.354 74.6907 134.642 74.808C134.93 74.936 135.234 75.032 135.554 75.096C135.874 75.1707 136.188 75.208 136.498 75.208C137.084 75.208 137.575 75.112 137.97 74.92C138.364 74.728 138.663 74.4453 138.866 74.072C139.068 73.6987 139.17 73.2347 139.17 72.68V71.064L139.346 71.176C139.292 71.5067 139.116 71.8267 138.818 72.136C138.53 72.4347 138.167 72.68 137.73 72.872C137.292 73.064 136.844 73.16 136.386 73.16C135.586 73.16 134.871 72.9733 134.242 72.6C133.623 72.216 133.132 71.6987 132.77 71.048C132.407 70.3867 132.226 69.6347 132.226 68.792C132.226 67.9493 132.402 67.2027 132.754 66.552C133.116 65.8907 133.607 65.3733 134.226 65C134.855 64.616 135.559 64.424 136.338 64.424C136.658 64.424 136.967 64.4667 137.266 64.552C137.564 64.6267 137.842 64.7387 138.098 64.888C138.354 65.0267 138.583 65.1813 138.786 65.352C138.988 65.5227 139.154 65.704 139.282 65.896C139.41 66.088 139.49 66.2693 139.522 66.44L139.17 66.568V64.6H140.818V72.488C140.818 73.16 140.716 73.752 140.514 74.264C140.322 74.7867 140.039 75.224 139.666 75.576C139.292 75.9387 138.839 76.2107 138.306 76.392C137.772 76.584 137.17 76.68 136.498 76.68ZM136.562 71.64C137.084 71.64 137.548 71.5173 137.954 71.272C138.359 71.0267 138.674 70.6907 138.898 70.264C139.122 69.8373 139.234 69.3467 139.234 68.792C139.234 68.2373 139.116 67.7467 138.882 67.32C138.658 66.8827 138.343 66.5413 137.938 66.296C137.543 66.0507 137.084 65.928 136.562 65.928C136.05 65.928 135.591 66.056 135.186 66.312C134.791 66.5573 134.476 66.8987 134.242 67.336C134.018 67.7627 133.906 68.248 133.906 68.792C133.906 69.336 134.018 69.8267 134.242 70.264C134.476 70.6907 134.791 71.0267 135.186 71.272C135.591 71.5173 136.05 71.64 136.562 71.64Z"
    fill="#7749F8"/>
  <path
    d="M145.947 73.16C145.35 73.16 144.827 73.0213 144.379 72.744C143.942 72.4667 143.601 72.0773 143.355 71.576C143.121 71.0747 143.003 70.4773 143.003 69.784V64.6H144.651V69.336C144.651 69.8267 144.726 70.2533 144.875 70.616C145.035 70.968 145.259 71.24 145.547 71.432C145.846 71.624 146.203 71.72 146.619 71.72C146.929 71.72 147.211 71.672 147.467 71.576C147.723 71.4693 147.942 71.3253 148.123 71.144C148.315 70.9627 148.465 70.744 148.571 70.488C148.678 70.232 148.731 69.9547 148.731 69.656V64.6H150.379V73H148.731V71.24L149.019 71.048C148.891 71.4427 148.673 71.8 148.363 72.12C148.065 72.44 147.707 72.696 147.291 72.888C146.875 73.0693 146.427 73.16 145.947 73.16Z"
    fill="#7749F8"/>
  <path
    d="M152.691 73V64.6H154.355V67.24L154.195 66.6C154.312 66.1947 154.51 65.8267 154.787 65.496C155.075 65.1653 155.4 64.904 155.763 64.712C156.136 64.52 156.52 64.424 156.915 64.424C157.096 64.424 157.267 64.44 157.427 64.472C157.598 64.504 157.731 64.5413 157.827 64.584L157.395 66.376C157.267 66.3227 157.123 66.28 156.963 66.248C156.814 66.2053 156.664 66.184 156.515 66.184C156.227 66.184 155.95 66.2427 155.683 66.36C155.427 66.4667 155.198 66.6213 154.995 66.824C154.803 67.016 154.648 67.2453 154.531 67.512C154.414 67.768 154.355 68.0507 154.355 68.36V73H152.691Z"
    fill="#7749F8"/>
  <path
    d="M31.8448 88.032L31.7608 86.338L36.8988 81.2H38.8868L31.8448 88.032ZM30.5848 91V81.2H32.0968V91H30.5848ZM37.0808 91L33.3288 85.988L34.4488 85.022L38.9708 91H37.0808Z"
    fill="#A188E7"/>
  <path d="M40.5027 91V80.64H41.9447V91H40.5027Z" fill="#A188E7"/>
  <path
    d="M44.2263 91V83.65H45.6683V91H44.2263ZM44.9263 82.026C44.6183 82.026 44.3803 81.9467 44.2123 81.788C44.0443 81.6293 43.9603 81.4053 43.9603 81.116C43.9603 80.8453 44.0443 80.626 44.2123 80.458C44.3897 80.29 44.6277 80.206 44.9263 80.206C45.2343 80.206 45.4723 80.2853 45.6403 80.444C45.8083 80.6027 45.8923 80.8267 45.8923 81.116C45.8923 81.3867 45.8037 81.606 45.6263 81.774C45.4583 81.942 45.225 82.026 44.9263 82.026Z"
    fill="#A188E7"/>
  <path
    d="M47.8848 91V83.65H49.3268V85.162L49.0748 85.33C49.1682 85.0033 49.3502 84.7047 49.6208 84.434C49.8915 84.154 50.2135 83.93 50.5868 83.762C50.9602 83.5847 51.3428 83.496 51.7348 83.496C52.2948 83.496 52.7615 83.608 53.1348 83.832C53.5082 84.0467 53.7882 84.378 53.9748 84.826C54.1615 85.274 54.2548 85.8387 54.2548 86.52V91H52.8128V86.618C52.8128 86.198 52.7568 85.8527 52.6448 85.582C52.5328 85.302 52.3602 85.1013 52.1268 84.98C51.8935 84.8493 51.6042 84.7933 51.2588 84.812C50.9788 84.812 50.7222 84.8587 50.4888 84.952C50.2555 85.036 50.0502 85.1573 49.8728 85.316C49.7048 85.4747 49.5695 85.6613 49.4668 85.876C49.3735 86.0813 49.3268 86.3053 49.3268 86.548V91H48.6128C48.4915 91 48.3702 91 48.2488 91C48.1275 91 48.0062 91 47.8848 91Z"
    fill="#A188E7"/>
  <path
    d="M56.449 91V83.65H57.891V91H56.449ZM57.149 82.026C56.841 82.026 56.603 81.9467 56.435 81.788C56.267 81.6293 56.183 81.4053 56.183 81.116C56.183 80.8453 56.267 80.626 56.435 80.458C56.6123 80.29 56.8503 80.206 57.149 80.206C57.457 80.206 57.695 80.2853 57.863 80.444C58.031 80.6027 58.115 80.8267 58.115 81.116C58.115 81.3867 58.0263 81.606 57.849 81.774C57.681 81.942 57.4477 82.026 57.149 82.026Z"
    fill="#A188E7"/>
  <path
    d="M61.4235 88.704L61.3535 87.136L64.8675 83.65H66.8135L61.4235 88.704ZM60.1075 91V80.64H61.5495V91H60.1075ZM65.0635 91L62.2915 87.766L63.3135 86.828L66.9115 91H65.0635Z"
    fill="#A188E7"/>
  <path
    d="M72.3523 91V81.2H76.3423C76.8743 81.2 77.355 81.3353 77.7843 81.606C78.223 81.8673 78.573 82.2267 78.8343 82.684C79.0957 83.1413 79.2263 83.65 79.2263 84.21C79.2263 84.77 79.0957 85.2787 78.8343 85.736C78.573 86.1933 78.223 86.562 77.7843 86.842C77.355 87.1127 76.8743 87.248 76.3423 87.248H73.8643V91H72.3523ZM73.8643 85.792H76.3143C76.5663 85.792 76.795 85.722 77.0003 85.582C77.2057 85.4327 77.369 85.2413 77.4903 85.008C77.621 84.7653 77.6863 84.4993 77.6863 84.21C77.6863 83.9207 77.621 83.6593 77.4903 83.426C77.369 83.1927 77.2057 83.006 77.0003 82.866C76.795 82.726 76.5663 82.656 76.3143 82.656H73.8643V85.792Z"
    fill="#A188E7"/>
  <path
    d="M83.3114 91.14C82.6954 91.14 82.1401 91.0327 81.6454 90.818C81.1507 90.6033 80.7401 90.286 80.4134 89.866L81.3934 89.026C81.6734 89.3527 81.9767 89.5907 82.3034 89.74C82.6394 89.88 83.0174 89.95 83.4374 89.95C83.6054 89.95 83.7594 89.9313 83.8994 89.894C84.0487 89.8473 84.1747 89.782 84.2774 89.698C84.3894 89.614 84.4734 89.516 84.5294 89.404C84.5854 89.2827 84.6134 89.152 84.6134 89.012C84.6134 88.7693 84.5247 88.5733 84.3474 88.424C84.2541 88.3587 84.1047 88.2887 83.8994 88.214C83.7034 88.13 83.4467 88.046 83.1294 87.962C82.5881 87.822 82.1447 87.6633 81.7994 87.486C81.4541 87.3087 81.1881 87.108 81.0014 86.884C80.8614 86.7067 80.7587 86.5153 80.6934 86.31C80.6281 86.0953 80.5954 85.862 80.5954 85.61C80.5954 85.302 80.6607 85.022 80.7914 84.77C80.9314 84.5087 81.1181 84.2847 81.3514 84.098C81.5941 83.902 81.874 83.7527 82.1914 83.65C82.518 83.5473 82.8634 83.496 83.2274 83.496C83.5727 83.496 83.9134 83.5427 84.2494 83.636C84.5947 83.7293 84.9121 83.8647 85.2014 84.042C85.4907 84.2193 85.7334 84.4293 85.9294 84.672L85.1034 85.582C84.9261 85.4047 84.7301 85.2507 84.5154 85.12C84.3101 84.98 84.1001 84.8727 83.8854 84.798C83.6707 84.7233 83.4747 84.686 83.2974 84.686C83.1014 84.686 82.9241 84.7047 82.7654 84.742C82.6067 84.7793 82.4714 84.8353 82.3594 84.91C82.2567 84.9847 82.1774 85.078 82.1214 85.19C82.0654 85.302 82.0374 85.428 82.0374 85.568C82.0467 85.6893 82.0747 85.806 82.1214 85.918C82.1774 86.0207 82.2521 86.1093 82.3454 86.184C82.4481 86.2587 82.6021 86.338 82.8074 86.422C83.0127 86.506 83.2741 86.5853 83.5914 86.66C84.0581 86.7813 84.4407 86.9167 84.7394 87.066C85.0474 87.206 85.2901 87.3693 85.4674 87.556C85.6541 87.7333 85.7847 87.9387 85.8594 88.172C85.9341 88.4053 85.9714 88.6667 85.9714 88.956C85.9714 89.376 85.8501 89.754 85.6074 90.09C85.3741 90.4167 85.0567 90.6733 84.6554 90.86C84.2541 91.0467 83.8061 91.14 83.3114 91.14Z"
    fill="#A188E7"/>
  <path
    d="M87.7986 91V83.65H89.2406V91H87.7986ZM88.4986 82.026C88.1906 82.026 87.9526 81.9467 87.7846 81.788C87.6166 81.6293 87.5326 81.4053 87.5326 81.116C87.5326 80.8453 87.6166 80.626 87.7846 80.458C87.9619 80.29 88.1999 80.206 88.4986 80.206C88.8066 80.206 89.0446 80.2853 89.2126 80.444C89.3806 80.6027 89.4646 80.8267 89.4646 81.116C89.4646 81.3867 89.3759 81.606 89.1986 81.774C89.0306 81.942 88.7973 82.026 88.4986 82.026Z"
    fill="#A188E7"/>
  <path
    d="M92.7731 88.704L92.7031 87.136L96.2171 83.65H98.1631L92.7731 88.704ZM91.4571 91V80.64H92.8991V91H91.4571ZM96.4131 91L93.6411 87.766L94.6631 86.828L98.2611 91H96.4131Z"
    fill="#A188E7"/>
  <path
    d="M102.404 91.14C101.685 91.14 101.041 90.9767 100.472 90.65C99.9117 90.314 99.4683 89.8613 99.1417 89.292C98.815 88.7133 98.6517 88.0553 98.6517 87.318C98.6517 86.5807 98.815 85.9273 99.1417 85.358C99.4683 84.7793 99.9117 84.3267 100.472 84C101.041 83.664 101.685 83.496 102.404 83.496C103.113 83.496 103.748 83.664 104.308 84C104.877 84.3267 105.325 84.7793 105.652 85.358C105.978 85.9273 106.142 86.5807 106.142 87.318C106.142 88.0553 105.978 88.7133 105.652 89.292C105.325 89.8613 104.877 90.314 104.308 90.65C103.748 90.9767 103.113 91.14 102.404 91.14ZM102.404 89.824C102.842 89.824 103.234 89.7167 103.58 89.502C103.925 89.278 104.196 88.9793 104.392 88.606C104.588 88.2233 104.681 87.794 104.672 87.318C104.681 86.8327 104.588 86.4033 104.392 86.03C104.196 85.6473 103.925 85.3487 103.58 85.134C103.234 84.9193 102.842 84.812 102.404 84.812C101.965 84.812 101.568 84.924 101.214 85.148C100.868 85.3627 100.598 85.6613 100.402 86.044C100.206 86.4173 100.112 86.842 100.122 87.318C100.112 87.794 100.206 88.2233 100.402 88.606C100.598 88.9793 100.868 89.278 101.214 89.502C101.568 89.7167 101.965 89.824 102.404 89.824Z"
    fill="#A188E7"/>
  <path d="M107.741 91V80.64H109.183V91H107.741Z" fill="#A188E7"/>
  <path
    d="M114.394 91.14C113.675 91.14 113.031 90.9767 112.462 90.65C111.902 90.314 111.459 89.8613 111.132 89.292C110.805 88.7133 110.642 88.0553 110.642 87.318C110.642 86.5807 110.805 85.9273 111.132 85.358C111.459 84.7793 111.902 84.3267 112.462 84C113.031 83.664 113.675 83.496 114.394 83.496C115.103 83.496 115.738 83.664 116.298 84C116.867 84.3267 117.315 84.7793 117.642 85.358C117.969 85.9273 118.132 86.5807 118.132 87.318C118.132 88.0553 117.969 88.7133 117.642 89.292C117.315 89.8613 116.867 90.314 116.298 90.65C115.738 90.9767 115.103 91.14 114.394 91.14ZM114.394 89.824C114.833 89.824 115.225 89.7167 115.57 89.502C115.915 89.278 116.186 88.9793 116.382 88.606C116.578 88.2233 116.671 87.794 116.662 87.318C116.671 86.8327 116.578 86.4033 116.382 86.03C116.186 85.6473 115.915 85.3487 115.57 85.134C115.225 84.9193 114.833 84.812 114.394 84.812C113.955 84.812 113.559 84.924 113.204 85.148C112.859 85.3627 112.588 85.6613 112.392 86.044C112.196 86.4173 112.103 86.842 112.112 87.318C112.103 87.794 112.196 88.2233 112.392 88.606C112.588 88.9793 112.859 89.278 113.204 89.502C113.559 89.7167 113.955 89.824 114.394 89.824Z"
    fill="#A188E7"/>
  <path
    d="M122.993 94.22C122.471 94.22 121.948 94.136 121.425 93.968C120.912 93.8093 120.497 93.5993 120.179 93.338L120.711 92.218C120.898 92.358 121.117 92.4793 121.369 92.582C121.621 92.694 121.887 92.778 122.167 92.834C122.447 92.8993 122.723 92.932 122.993 92.932C123.507 92.932 123.936 92.848 124.281 92.68C124.627 92.512 124.888 92.2647 125.065 91.938C125.243 91.6113 125.331 91.2053 125.331 90.72V89.306L125.485 89.404C125.439 89.6933 125.285 89.9733 125.023 90.244C124.771 90.5053 124.454 90.72 124.071 90.888C123.689 91.056 123.297 91.14 122.895 91.14C122.195 91.14 121.57 90.9767 121.019 90.65C120.478 90.314 120.049 89.8613 119.731 89.292C119.414 88.7133 119.255 88.0553 119.255 87.318C119.255 86.5807 119.409 85.9273 119.717 85.358C120.035 84.7793 120.464 84.3267 121.005 84C121.556 83.664 122.172 83.496 122.853 83.496C123.133 83.496 123.404 83.5333 123.665 83.608C123.927 83.6733 124.169 83.7713 124.393 83.902C124.617 84.0233 124.818 84.1587 124.995 84.308C125.173 84.4573 125.317 84.616 125.429 84.784C125.541 84.952 125.611 85.1107 125.639 85.26L125.331 85.372V83.65H126.773V90.552C126.773 91.14 126.685 91.658 126.507 92.106C126.339 92.5633 126.092 92.946 125.765 93.254C125.439 93.5713 125.042 93.8093 124.575 93.968C124.109 94.136 123.581 94.22 122.993 94.22ZM123.049 89.81C123.507 89.81 123.913 89.7027 124.267 89.488C124.622 89.2733 124.897 88.9793 125.093 88.606C125.289 88.2327 125.387 87.8033 125.387 87.318C125.387 86.8327 125.285 86.4033 125.079 86.03C124.883 85.6473 124.608 85.3487 124.253 85.134C123.908 84.9193 123.507 84.812 123.049 84.812C122.601 84.812 122.2 84.924 121.845 85.148C121.5 85.3627 121.225 85.6613 121.019 86.044C120.823 86.4173 120.725 86.842 120.725 87.318C120.725 87.794 120.823 88.2233 121.019 88.606C121.225 88.9793 121.5 89.2733 121.845 89.488C122.2 89.7027 122.601 89.81 123.049 89.81Z"
    fill="#A188E7"/>
</svg>
